<svg width="139" height="54" viewBox="0 0 139 54" fill="none" xmlns="http://www.w3.org/2000/svg">
<path d="M10.25 10.2748C18.5569 10.407 25.2864 17.1189 25.4186 25.4515H10.25V10.2748Z" fill="#3AADA8" stroke="#F9F9F9" stroke-width="0.5"/>
<path d="M10.252 25.906H25.4206V41.0828C17.1136 40.9505 10.3842 34.2387 10.252 25.906Z" fill="#557C83" stroke="#F9F9F9" stroke-width="0.5"/>
<path d="M25.9888 10.252C34.3168 10.3843 41.0252 17.1172 41.1574 25.4288H25.9888V10.252Z" fill="#557C83" stroke="#F9F9F9" stroke-width="0.5"/>
<path d="M41.1574 25.906C41.0252 34.2387 34.2957 40.9505 25.9888 41.0828V25.906H41.1574Z" fill="#3AADA8" stroke="#F9F9F9" stroke-width="0.5"/>
<rect x="0.75" y="0.75" width="135.5" height="50.5" stroke="url(#paint0_linear_4022_1425)" stroke-width="1.5"/>
<rect x="2.5" y="2.5" width="136" height="51" stroke="url(#paint1_linear_4022_1425)"/>
<path d="M60.772 39V15.528H75.46V19.992H66.064V24.708H74.092V29.136H66.064V34.536H75.82V39H60.772ZM80.4947 39V15.528H88.9547C90.6107 15.528 92.1227 15.756 93.4907 16.212C94.8587 16.644 95.9507 17.4 96.7667 18.48C97.5827 19.536 97.9907 20.988 97.9907 22.836C97.9907 24.612 97.5827 26.076 96.7667 27.228C95.9507 28.356 94.8587 29.196 93.4907 29.748C92.1227 30.3 90.6107 30.576 88.9547 30.576H85.7867V39H80.4947ZM85.7867 26.364H88.5227C89.9147 26.364 90.9707 26.064 91.6907 25.464C92.4347 24.864 92.8067 23.988 92.8067 22.836C92.8067 21.684 92.4347 20.88 91.6907 20.424C90.9707 19.968 89.9147 19.74 88.5227 19.74H85.7867V26.364ZM93.2027 39L87.9827 29.172L91.6547 25.752L99.1427 39H93.2027ZM102.573 39V15.528H110.637C112.365 15.528 113.925 15.768 115.317 16.248C116.733 16.704 117.861 17.484 118.701 18.588C119.541 19.692 119.961 21.192 119.961 23.088C119.961 24.912 119.541 26.412 118.701 27.588C117.861 28.764 116.745 29.64 115.353 30.216C113.961 30.768 112.437 31.044 110.781 31.044H107.865V39H102.573ZM107.865 26.832H110.457C111.921 26.832 113.001 26.508 113.697 25.86C114.393 25.212 114.741 24.288 114.741 23.088C114.741 21.84 114.357 20.976 113.589 20.496C112.845 19.992 111.753 19.74 110.313 19.74H107.865V26.832Z" fill="#557C83"/>
<defs>
<linearGradient id="paint0_linear_4022_1425" x1="94.8462" y1="-32.9333" x2="7.53677" y2="48.3287" gradientUnits="userSpaceOnUse">
<stop stop-color="white"/>
<stop offset="0.494" stop-color="#557C83"/>
<stop offset="1" stop-color="white"/>
</linearGradient>
<linearGradient id="paint1_linear_4022_1425" x1="96.8462" y1="-30.9333" x2="9.53677" y2="50.3287" gradientUnits="userSpaceOnUse">
<stop stop-color="white"/>
<stop offset="0.494" stop-color="#557C83"/>
<stop offset="1" stop-color="white"/>
</linearGradient>
</defs>
</svg>
